<?xml version="1.0" encoding="utf-8"?>
<!-- Generator: Adobe Illustrator 15.0.0, SVG Export Plug-In . SVG Version: 6.00 Build 0)  -->
<!DOCTYPE svg PUBLIC "-//W3C//DTD SVG 1.1//EN" "http://www.w3.org/Graphics/SVG/1.1/DTD/svg11.dtd">
<svg version="1.1"
	 id="svg2" inkscape:version="0.46" sodipodi:version="0.32" sodipodi:docname="Vrije Universiteit Brussel.svg" inkscape:output_extension="org.inkscape.output.svg.inkscape" xmlns:inkscape="http://www.inkscape.org/namespaces/inkscape" xmlns:sodipodi="http://sodipodi.sourceforge.net/DTD/sodipodi-0.dtd" xmlns:svg="http://www.w3.org/2000/svg" xmlns:rdf="http://www.w3.org/1999/02/22-rdf-syntax-ns#" xmlns:cc="http://creativecommons.org/ns#" xmlns:dc="http://purl.org/dc/elements/1.1/"
	 xmlns="http://www.w3.org/2000/svg" xmlns:xlink="http://www.w3.org/1999/xlink" x="0px" y="0px" width="79.5px" height="64px"
	 viewBox="0 0 79.5 64" enable-background="new 0 0 79.5 64" xml:space="preserve">
<defs>
	
	
		<inkscape:perspective  id="perspective9" inkscape:vp_x="0 : 526.18109 : 1" sodipodi:type="inkscape:persp3d" inkscape:vp_y="0 : 1000 : 0" inkscape:vp_z="744.09448 : 526.18109 : 1" inkscape:persp3d-origin="372.04724 : 350.78739 : 1">
		</inkscape:perspective>
</defs>
<sodipodi:namedview  id="base" inkscape:window-height="712" inkscape:window-width="1024" inkscape:zoom="4.612498" inkscape:pageshadow="2" inkscape:pageopacity="0.0" guidetolerance="10.0" gridtolerance="10.0" objecttolerance="10.0" borderopacity="1.0" bordercolor="#666666" pagecolor="#ffffff" inkscape:cy="32.098035" showgrid="false" inkscape:cx="100.59625" inkscape:window-x="-4" inkscape:window-y="-4" inkscape:current-layer="g11">
	</sodipodi:namedview>
<g id="g11" transform="matrix(1.25,0,0,-1.25,0,63.75)" inkscape:groupmode="layer" inkscape:label="VUB_logo_compact">
	<g id="g13" transform="scale(0.1,0.1)">
		<g id="g15">
			<g>
				<defs>
					<polyline id="SVGID_1_" points="0,509.562 0,0 1609.539,0 1609.539,509.562 					"/>
				</defs>
				<clipPath id="SVGID_2_">
					<use xlink:href="#SVGID_1_"  overflow="visible"/>
				</clipPath>
				<g id="g17" clip-path="url(#SVGID_2_)">
					<path id="path23" fill="#B2B204" d="M410.918,509.562l-99.168-99.16l-99.172,99.16H410.918"/>
					<path id="path25" fill="#56543C" d="M359.043,76.312c28.574,28.562,25.43,44.297,0.449,69.281l-47.734,47.734l-82.137-82.172
						l47.734-47.711c25.625-25.547,44.363-24.453,72.312,3.492L359.043,76.312z M432.988,207.258c22.012,22.008,22.031,35,0,56.988
						l-25.137,25.156l-56.23-56.23l25.156-25.141c23.574-23.594,36.699-20.289,48.105-8.859L432.988,207.258z M501.074,462.355
						c0,0,6.992,6.055,14.102,22.012h108.32c-28.77-8.555-42.656-21.914-42.656-21.914L432.109,313.66l28.633-28.633
						c33.867-33.883,38.457-68.551,4.316-102.676l-6.445-6.461c-24.609-24.594-30.996-23.516-49.648-24.922
						c18.965-27.156,20.801-60.922-10.02-91.742l-33.672-33.695c-33.887-33.844-72.812-34.188-106.914-0.094L90.391,193.406
						c0,0-6.746,6.688-18.973-0.43l47.898,47.914c-7.312-12.203-0.418-18.984-0.418-18.984l36.453-36.469
						c25.605-25.531,44.348-24.453,72.316,3.516l9.363,9.398c28.574,28.539,25.441,44.289,0.449,69.254L42.656,462.453
						c0,0-13.887,13.359-42.656,21.895h108.32c7.109-15.938,14.113-21.992,14.113-21.992l189.316-189.32L501.074,462.355"/>
					<path id="path27" display="none" fill="#56543C" d="M856.844,380.059h-6.422l-40.848,103.996h12.254l26.547-68.965
						c1.875-5.031,3.922-10.688,5.805-16.02h0.328c1.727,5.332,3.602,10.363,5.961,16.02l28.75,68.965h11.953L856.844,380.059"/>
					<path id="path29" display="none" fill="#56543C" d="M947.938,443.371c-1.57,0.625-3.93,1.25-7.078,1.25
						c-4.391,0-11.617-3.77-16.312-8.945v-55.148h-11.469v74.309h9.414l1.57-8.477c10.203,9.258,15.859,10.359,21.211,10.359
						c3.305,0,6.117-1.258,7.539-2.195L947.938,443.371"/>
					<path id="path31" display="none" fill="#56543C" d="M970.57,380.527v74.309h11.461v-74.309H970.57z M976.203,470.391
						c-4.391,0-7.984,3.613-7.984,8.008c0,4.406,3.594,8.02,7.984,8.02c4.422,0,8.016-3.613,8.016-8.02
						C984.219,474.004,980.625,470.391,976.203,470.391"/>
					<path id="path33" display="none" fill="#56543C" d="M1021.93,470.391c-4.391,0-7.992,3.613-7.992,8.008
						c0,4.406,3.602,8.02,7.992,8.02c4.414,0,8.023-3.613,8.023-8.02C1029.953,474.004,1026.344,470.391,1021.93,470.391z
						 M1006.234,343.289c-3.609,0-8.344,0.625-11.781,2.68l2.812,8.953c2.047-1.105,4.414-2.039,8.023-2.039
						c7.227,0,10.836,5.332,10.836,18.219v83.734h11.469v-85.148C1027.594,349.895,1017.852,343.289,1006.234,343.289"/>
					<path id="path35" display="none" fill="#56543C" d="M1084.625,446.984c-11,0-17.914-9.746-17.914-21.523h35.039
						C1101.75,435.832,1095.938,446.984,1084.625,446.984z M1066.562,415.715c0-14.133,8.172-26.699,24.656-26.699
						c6.297,0,13.188,2.508,17.609,5.34l3.453-7.863c-5.352-4.391-14.766-7.539-23.422-7.539c-23.234,0-34.562,19.008-34.562,40.219
						c0,21.523,12.266,37.547,30.172,37.547c19.156,0,29.688-15.234,29.688-38.328c0-0.781,0-1.73,0-2.676H1066.562"/>
					<path id="path37" display="none" fill="#56543C" d="M887.344,200.641c-6.141-6.125-15.555-10.211-29.383-10.211
						c-13.039,0-21.695,3.781-27.352,9.109c-8.312,8.18-10.047,20.273-10.047,29.688v66.309h11.469V229.07
						c0-7.055,1.578-15.703,7.383-21.523c3.93-4.078,9.898-6.75,18.852-6.75c9.891,0,16.344,2.672,20.578,6.922
						c4.719,5.023,6.445,12.25,6.445,20.422v67.395h11.461v-68.973C896.75,217.141,894.094,207.547,887.344,200.641"/>
					<path id="path39" display="none" fill="#56543C" d="M976.578,192v45.719c0,9.266-1.578,19.633-12.891,19.633
						c-9.109,0-17.281-6.434-23.094-11.617V192h-11.469v74.309h9.422l1.57-8.797c8.805,6.441,16.188,10.68,26.555,10.68
						c10.688,0,21.375-7.695,21.375-26.223V192H976.578"/>
					<path id="path41" display="none" fill="#56543C" d="M1018.359,192v74.309h11.469V192H1018.359z M1024.016,281.863
						c-4.406,0-8,3.613-8,8.008c0,4.406,3.594,8.012,8,8.012c4.391,0,8-3.605,8-8.012
						C1032.016,285.477,1028.406,281.863,1024.016,281.863"/>
					<path id="path43" display="none" fill="#56543C" d="M1088.594,191.531h-9.133l-28.258,74.777h11.766l21.211-59.543h0.336
						l23.719,59.543h11.141L1088.594,191.531"/>
					<path id="path45" display="none" fill="#56543C" d="M1163.375,258.457c-11.016,0-17.922-9.738-17.922-21.52h35.031
						C1180.484,247.297,1174.68,258.457,1163.375,258.457z M1145.297,227.195c0-14.133,8.172-26.719,24.672-26.719
						c6.297,0,13.188,2.523,17.578,5.352l3.469-7.859c-5.344-4.391-14.75-7.539-23.414-7.539c-23.242,0-34.555,19.008-34.555,40.227
						c0,21.523,12.25,37.535,30.164,37.535c19.164,0,29.688-15.23,29.688-38.332c0-0.789,0-1.719,0-2.664H1145.297"/>
					<path id="path47" display="none" fill="#56543C" d="M1252.125,254.844c-1.578,0.625-3.938,1.258-7.078,1.258
						c-4.398,0-11.625-3.766-16.312-8.961V192h-11.469v74.309h9.406l1.562-8.488c10.219,9.281,15.867,10.371,21.219,10.371
						c3.297,0,6.125-1.25,7.531-2.195L1252.125,254.844"/>
					<path id="path49" display="none" fill="#56543C" d="M1287.469,190.43c-10.68,0-17.125,2.82-22,5.656l4.406,8.961
						c3.453-2.203,9.906-5.352,18.078-5.352c9.109,0,15.695,4.094,15.695,10.992c0,18.227-33.773,11.797-33.773,37.867
						c0,10.691,7.703,19.637,24.672,19.637c7.859,0,13.828-1.715,18.688-3.922v-10.059c-5.188,2.203-10.516,4.402-18.203,4.402
						c-7.562,0-13.828-2.676-13.828-9.426c0-16.656,34.406-12.406,34.406-36.75C1315.609,196.875,1302.719,190.43,1287.469,190.43"
						/>
					<path id="path51" display="none" fill="#56543C" d="M1341.203,192v74.309h11.477V192H1341.203z M1346.875,281.863
						c-4.422,0-8.023,3.613-8.023,8.008c0,4.406,3.602,8.012,8.023,8.012c4.375,0,7.984-3.605,7.984-8.012
						C1354.859,285.477,1351.25,281.863,1346.875,281.863"/>
					<path id="path53" display="none" fill="#56543C" d="M1404.047,190.43c-10.672,0-15.875,6.281-15.875,15.867v50.273h-12.102
						v9.738h12.102v16.336l11.469,3.926v-20.262h22.781l-4.078-9.738h-18.703v-46.812c0-6.289,2.359-9.117,7.234-9.117
						c5.344,0,10.195,2.984,13.188,5.344l3.625-8.172C1418.18,193.734,1410.961,190.43,1404.047,190.43"/>
					<path id="path55" display="none" fill="#56543C" d="M1471.125,258.457c-11,0-17.906-9.738-17.906-21.52h35.016
						C1488.234,247.297,1482.43,258.457,1471.125,258.457z M1453.047,227.195c0-14.133,8.172-26.719,24.688-26.719
						c6.266,0,13.195,2.523,17.578,5.352l3.453-7.859c-5.328-4.391-14.766-7.539-23.391-7.539
						c-23.266,0-34.586,19.008-34.586,40.227c0,21.523,12.258,37.535,30.172,37.535c19.18,0,29.695-15.23,29.695-38.332
						c0-0.789,0-1.719,0-2.664H1453.047"/>
					<path id="path57" display="none" fill="#56543C" d="M1527.047,192v74.309h11.484V192H1527.047z M1532.719,281.863
						c-4.398,0-8.016,3.613-8.016,8.008c0,4.406,3.617,8.012,8.016,8.012c4.383,0,8.015-3.605,8.015-8.012
						C1540.734,285.477,1537.102,281.863,1532.719,281.863"/>
					<path id="path59" display="none" fill="#56543C" d="M1589.898,190.43c-10.68,0-15.883,6.281-15.883,15.867v50.273h-12.094
						v9.738h12.094v16.336l11.469,3.926v-20.262h22.781l-4.078-9.738h-18.703v-46.812c0-6.289,2.367-9.117,7.234-9.117
						c5.352,0,10.203,2.984,13.188,5.344l3.633-8.172C1604.031,193.734,1596.812,190.43,1589.898,190.43"/>
					<path id="path61" display="none" fill="#56543C" d="M848.375,51.234h-16.344V14.172h15.406
						c14.609,0,22.625,8.312,22.625,19.312C870.062,43.391,861.562,51.234,848.375,51.234z M845.227,96.328h-13.195V61.766h13.344
						c9.133,0,18.703,6.133,18.703,18.07C864.078,90.203,858.109,96.328,845.227,96.328z M846.484,3.484h-25.922v103.531h28.906
						c18.844,0,27.016-13.203,27.016-24.984c0-10.672-5.023-19.172-14.281-22.938v-0.156c9.734-1.562,20.422-11.312,20.422-25.141
						C882.625,19.812,874.297,3.484,846.484,3.484"/>
					<path id="path63" display="none" fill="#56543C" d="M942.625,66.312c-1.57,0.625-3.93,1.266-7.078,1.266
						c-4.391,0-11.617-3.766-16.312-8.953V3.484h-11.469v74.297h9.414l1.57-8.469c10.203,9.266,15.859,10.367,21.211,10.367
						c3.305,0,6.117-1.258,7.539-2.195L942.625,66.312"/>
					<path id="path65" display="none" fill="#56543C" d="M1012.859,3.484l-2.984,7.703c-5.5-4.711-14.141-9.281-24.039-9.281
						c-10.055,0-22.633,5.195-22.633,26.078v49.797h11.469V29.094c0-12.422,5.203-17.281,14.469-17.281
						c9.406,0,16.648,5.969,19.789,9.898v56.07h11.469V34.594c0-23.406,0.477-27.969,1.57-31.109H1012.859"/>
					<path id="path67" display="none" fill="#56543C" d="M1065.016,1.906c-10.672,0-17.117,2.828-21.984,5.656l4.391,8.961
						c3.453-2.195,9.891-5.336,18.062-5.336c9.109,0,15.703,4.078,15.703,10.992c0,18.219-33.766,11.773-33.766,37.859
						c0,10.68,7.688,19.641,24.656,19.641c7.875,0,13.828-1.727,18.703-3.93V65.688c-5.18,2.211-10.531,4.406-18.219,4.406
						c-7.547,0-13.828-2.672-13.828-9.43c0-16.648,34.406-12.414,34.406-36.758C1093.141,8.352,1080.25,1.906,1065.016,1.906"/>
					<path id="path69" display="none" fill="#56543C" d="M1131.469,1.906c-10.68,0-17.117,2.828-21.984,5.656l4.391,8.961
						c3.469-2.195,9.891-5.336,18.055-5.336c9.133,0,15.727,4.078,15.727,10.992c0,18.219-33.781,11.773-33.781,37.859
						c0,10.68,7.703,19.641,24.656,19.641c7.867,0,13.828-1.727,18.703-3.93V65.688c-5.188,2.211-10.531,4.406-18.219,4.406
						c-7.547,0-13.828-2.672-13.828-9.43c0-16.648,34.406-12.414,34.406-36.758C1159.594,8.352,1146.703,1.906,1131.469,1.906"/>
					<path id="path71" display="none" fill="#56543C" d="M1209.547,69.938c-10.984,0-17.906-9.742-17.906-21.531h35.031
						C1226.672,58.781,1220.859,69.938,1209.547,69.938z M1191.484,38.672c0-14.125,8.164-26.703,24.656-26.703
						c6.289,0,13.203,2.516,17.609,5.344l3.453-7.859c-5.352-4.406-14.773-7.547-23.422-7.547
						c-23.242,0-34.547,19.016-34.547,40.219c0,21.531,12.25,37.555,30.156,37.555c19.156,0,29.688-15.242,29.688-38.336
						c0-0.781,0-1.727,0-2.672H1191.484"/>
					<path id="path73" display="none" fill="#56543C" d="M1276.484,1.906c-9.109,0-13.047,5.82-13.047,13.672v99.125h11.469V20.766
						c0-7.078,1.719-8.492,6.125-8.492c0.789,0,2.047,0,3.93,0.469l1.414-8.32C1282.922,2.695,1280.234,1.906,1276.484,1.906"/>
					<path id="path75" display="none" fill="#56543C" d="M703.516,0.578h10v484.559h-10V0.578z"/>
				</g>
			</g>
		</g>
	</g>
</g>
</svg>
